<svg xmlns="http://www.w3.org/2000/svg" version="1.1" xmlns:xlink="http://www.w3.org/1999/xlink" xmlns:svgjs="http://svgjs.dev/svgjs" width="1440" height="560" preserveAspectRatio="none" viewBox="0 0 1440 560"><g mask="url(&quot;#SvgjsMask1065&quot;)" fill="none"><rect width="1440" height="560" x="0" y="0" fill="rgba(21, 67, 96, 1)"></rect><path d="M0,404.21C79.145,423.163,165.729,408.198,236.432,367.896C308.901,326.587,367.425,258.966,393.694,179.794C418.824,104.053,386.688,25.016,376.456,-54.126C366.052,-134.599,380.108,-222.498,333.128,-288.657C284.721,-356.825,202.053,-391.433,121.369,-413.346C41.8,-434.956,-41.719,-434.733,-120.971,-411.988C-200.55,-389.149,-282.294,-353.273,-328.143,-284.337C-372.373,-217.836,-352.928,-131.339,-360.51,-51.834C-367.671,23.263,-409.377,104.427,-371.434,169.628C-333.455,234.892,-237.207,229.438,-173.364,269.759C-110.254,309.616,-72.59,386.827,0,404.21" fill="#0f2f43"></path><path d="M1440 1047.4470000000001C1535.542 1047.583 1627.8600000000001 1027.606 1714.143 986.575 1809.903 941.037 1896.32 881.332 1962.886 798.794 2044.567 697.515 2148.36 589.255 2139.256 459.462 2130.121 329.22900000000004 2023.664 222.031 1917.135 146.56099999999998 1822.259 79.34699999999998 1700.024 82.61200000000002 1584.847 66.69600000000003 1486.563 53.113999999999976 1391.14 43.932000000000016 1293.29 60.351 1184.316 78.63600000000002 1074.498 100.18900000000002 986.552 167.08499999999998 886.352 243.301 769.541 337.051 764.159 462.829 758.746 589.324 883.18 678.679 960.366 779.042 1020.9 857.7529999999999 1079.705 937.307 1166.357 985.798 1249.638 1032.402 1344.566 1047.311 1440 1047.4470000000001" fill="#1b577d"></path></g><defs><mask id="SvgjsMask1065"><rect width="1440" height="560" fill="#ffffff"></rect></mask></defs></svg>